<?xml version="1.0" encoding="utf-8"?>
<!-- Generator: Adobe Illustrator 28.3.0, SVG Export Plug-In . SVG Version: 6.00 Build 0)  -->
<svg version="1.1" id="Capa_1" xmlns="http://www.w3.org/2000/svg" xmlns:xlink="http://www.w3.org/1999/xlink" x="0px" y="0px"
	 viewBox="0 0 154.6 46.7" style="enable-background:new 0 0 154.6 46.7;" xml:space="preserve">
<style type="text/css">
	.st0{fill:#FFFFFF;}
</style>
<g>
	<path class="st0" d="M32.1,19.6v3.1H21.3v-2.5l5.2-4.9c0.5-0.5,0.8-0.9,1-1.2c0.2-0.3,0.3-0.7,0.3-1c0-0.5-0.2-0.8-0.5-1.1
		c-0.3-0.3-0.7-0.4-1.3-0.4c-0.5,0-1,0.1-1.4,0.3c-0.4,0.2-0.8,0.6-1.1,1l-2.9-1.6c0.5-0.9,1.3-1.6,2.3-2.1c1-0.5,2.1-0.8,3.5-0.8
		c1.1,0,2,0.2,2.8,0.5c0.8,0.3,1.5,0.8,1.9,1.5c0.5,0.6,0.7,1.4,0.7,2.2c0,0.8-0.2,1.5-0.5,2.1c-0.3,0.7-1,1.4-1.9,2.3l-2.6,2.4
		H32.1z"/>
	<path class="st0" d="M42.8,15.1c0.9,0.8,1.4,1.9,1.4,3.2c0,0.9-0.2,1.7-0.7,2.4s-1.1,1.3-2,1.7s-2,0.6-3.4,0.6c-1,0-2-0.1-2.9-0.4
		c-1-0.2-1.8-0.6-2.5-1l1.4-3c0.6,0.4,1.2,0.7,1.8,0.9s1.3,0.3,2,0.3c0.7,0,1.2-0.1,1.6-0.4c0.4-0.3,0.6-0.6,0.6-1.1
		c0-0.5-0.2-0.8-0.6-1.1c-0.4-0.2-1.1-0.4-2.1-0.4h-3.8l0.7-8.1h8.9v3h-5.6l-0.2,2h0.9C40.4,13.9,41.9,14.3,42.8,15.1z"/>
	<path class="st0" d="M53,18.2c-0.4-0.3-0.8-0.6-1-1s-0.4-0.9-0.4-1.5s0.1-1,0.4-1.5c0.3-0.4,0.6-0.8,1-1c0.4-0.2,0.9-0.4,1.5-0.4
		c0.5,0,1,0.1,1.5,0.4c0.4,0.2,0.8,0.6,1,1c0.3,0.4,0.4,0.9,0.4,1.5s-0.1,1-0.4,1.5c-0.3,0.4-0.6,0.8-1,1s-0.9,0.4-1.5,0.4
		C53.9,18.6,53.4,18.5,53,18.2z"/>
	<path class="st0" d="M75.7,19.6v3.1H64.9v-2.5l5.2-4.9c0.5-0.5,0.8-0.9,1-1.2c0.2-0.3,0.3-0.7,0.3-1c0-0.5-0.2-0.8-0.5-1.1
		c-0.3-0.3-0.7-0.4-1.3-0.4c-0.5,0-1,0.1-1.4,0.3c-0.4,0.2-0.8,0.6-1.1,1l-2.9-1.6c0.5-0.9,1.3-1.6,2.3-2.1c1-0.5,2.1-0.8,3.5-0.8
		c1.1,0,2,0.2,2.8,0.5c0.8,0.3,1.5,0.8,1.9,1.5c0.5,0.6,0.7,1.4,0.7,2.2c0,0.8-0.2,1.5-0.5,2.1c-0.3,0.7-1,1.4-1.9,2.3l-2.6,2.4
		H75.7z"/>
	<path class="st0" d="M86.4,14.4c0.7,0.4,1.3,0.9,1.7,1.6c0.4,0.7,0.6,1.4,0.6,2.3c0,0.9-0.2,1.8-0.7,2.5s-1.1,1.3-2,1.7
		c-0.8,0.4-1.8,0.6-2.8,0.6c-2,0-3.6-0.6-4.7-1.8s-1.7-2.9-1.7-5.1c0-1.6,0.3-3,0.9-4.1s1.5-2,2.6-2.6c1.1-0.6,2.4-0.9,3.9-0.9
		c0.8,0,1.6,0.1,2.3,0.3c0.7,0.2,1.3,0.4,1.8,0.8l-1.4,2.8c-0.7-0.5-1.5-0.7-2.6-0.7c-1,0-1.8,0.3-2.4,0.8c-0.6,0.6-1,1.4-1.1,2.4
		c0.8-0.7,1.8-1,3.1-1C84.8,13.8,85.6,14,86.4,14.4z M84.4,19.7c0.4-0.3,0.5-0.7,0.5-1.3c0-0.5-0.2-1-0.5-1.3s-0.8-0.5-1.4-0.5
		c-0.6,0-1,0.2-1.4,0.5c-0.4,0.3-0.5,0.8-0.5,1.3c0,0.5,0.2,0.9,0.5,1.3s0.8,0.5,1.4,0.5C83.6,20.2,84.1,20,84.4,19.7z"/>
	<path class="st0" d="M97.4,18.2c-0.4-0.3-0.8-0.6-1-1S96,16.3,96,15.7s0.1-1,0.4-1.5c0.3-0.4,0.6-0.8,1-1c0.4-0.2,0.9-0.4,1.5-0.4
		c0.5,0,1,0.1,1.5,0.4c0.4,0.2,0.8,0.6,1,1c0.3,0.4,0.4,0.9,0.4,1.5s-0.1,1-0.4,1.5c-0.3,0.4-0.6,0.8-1,1s-0.9,0.4-1.5,0.4
		C98.3,18.6,97.8,18.5,97.4,18.2z"/>
	<path class="st0" d="M120.1,19.6v3.1h-10.8v-2.5l5.2-4.9c0.5-0.5,0.8-0.9,1-1.2c0.2-0.3,0.3-0.7,0.3-1c0-0.5-0.2-0.8-0.5-1.1
		c-0.3-0.3-0.7-0.4-1.3-0.4c-0.5,0-1,0.1-1.4,0.3c-0.4,0.2-0.8,0.6-1.1,1l-2.9-1.6c0.5-0.9,1.3-1.6,2.3-2.1c1-0.5,2.1-0.8,3.5-0.8
		c1.1,0,2,0.2,2.8,0.5c0.8,0.3,1.5,0.8,1.9,1.5c0.5,0.6,0.7,1.4,0.7,2.2c0,0.8-0.2,1.5-0.5,2.1c-0.3,0.7-1,1.4-1.9,2.3l-2.6,2.4
		H120.1z"/>
	<path class="st0" d="M132.6,8.8v2.5l-4.9,11.5h-4.3l4.7-10.8h-3.7v2.1H121V8.8H132.6z"/>
	<path class="st0" d="M20.4,24.2h6c1.4,0,2.6,0.3,3.7,0.8s1.9,1.3,2.5,2.2c0.6,1,0.9,2.1,0.9,3.4c0,1.3-0.3,2.4-0.9,3.4
		c-0.6,1-1.4,1.7-2.5,2.2s-2.3,0.8-3.7,0.8h-6V24.2z M26.3,34.1c1.1,0,2-0.3,2.6-0.9c0.7-0.6,1-1.5,1-2.6c0-1.1-0.3-2-1-2.6
		c-0.7-0.6-1.5-0.9-2.6-0.9H24v7H26.3z"/>
	<path class="st0" d="M46.4,36c-0.7,0.4-1.5,0.7-2.4,0.9s-1.9,0.3-2.9,0.3c-1.4,0-2.5-0.2-3.5-0.5c-1-0.3-1.7-0.8-2.2-1.4
		c-0.5-0.6-0.7-1.3-0.7-2c0-0.7,0.2-1.3,0.5-1.8c0.4-0.5,0.9-0.9,1.5-1.2c-0.5-0.3-0.9-0.6-1.1-1.1c-0.3-0.5-0.4-1-0.4-1.5
		c0-0.7,0.2-1.3,0.7-1.9s1.1-1.1,2-1.4s2-0.5,3.4-0.5c0.8,0,1.7,0.1,2.5,0.2c0.8,0.2,1.5,0.4,2.2,0.6l-1,2.7
		c-1.1-0.5-2.3-0.7-3.5-0.7c-0.9,0-1.5,0.1-1.9,0.3c-0.4,0.2-0.6,0.5-0.6,0.9c0,0.7,0.5,1.1,1.6,1.1h3.6v2.8h-3.8
		c-0.6,0-1.1,0.1-1.4,0.3c-0.3,0.2-0.5,0.5-0.5,0.9c0,0.4,0.2,0.7,0.7,1c0.5,0.2,1.2,0.3,2.2,0.3c0.7,0,1.4-0.1,2.1-0.3
		s1.4-0.4,1.9-0.8L46.4,36z"/>
	<path class="st0" d="M62.3,24.6c0.9,0.5,1.6,1.2,2.1,2.1s0.8,2,0.8,3.3v6.9h-3.6v-2.8h-5v2.8H53v-6.9c0-1.3,0.3-2.4,0.8-3.3
		c0.5-0.9,1.2-1.6,2.1-2.1c0.9-0.5,2-0.7,3.2-0.7C60.3,23.9,61.4,24.2,62.3,24.6z M61.6,31.3v-1.6c0-0.9-0.2-1.6-0.7-2.1
		s-1.1-0.7-1.8-0.7c-0.8,0-1.4,0.2-1.8,0.7c-0.5,0.5-0.7,1.2-0.7,2.1v1.6H61.6z"/>
	<path class="st0" d="M76.2,30.3h3.2v6.7h-2.5v-0.8c-0.9,0.7-2,1-3.4,1c-1.2,0-2.3-0.3-3.3-0.8c-1-0.5-1.8-1.3-2.3-2.2
		c-0.6-1-0.9-2.1-0.9-3.5c0-1.3,0.3-2.5,0.9-3.5c0.6-1,1.5-1.8,2.5-2.4c1.1-0.6,2.3-0.9,3.7-0.9c1.2,0,2.3,0.2,3.2,0.6
		c0.9,0.4,1.7,1,2.4,1.7l-2.3,2.1c-0.9-0.9-1.9-1.4-3.1-1.4c-1.1,0-2,0.3-2.7,1s-1,1.6-1,2.7c0,1.2,0.3,2.1,0.9,2.7
		c0.6,0.6,1.4,0.9,2.4,0.9c0.9,0,1.7-0.2,2.3-0.7V30.3z"/>
	<path class="st0" d="M84.4,36.3c-1.1-0.6-1.9-1.4-2.5-2.4c-0.6-1-0.9-2.1-0.9-3.4s0.3-2.4,0.9-3.4s1.5-1.8,2.5-2.4s2.3-0.9,3.6-0.9
		s2.6,0.3,3.6,0.9s1.9,1.4,2.5,2.4c0.6,1,0.9,2.1,0.9,3.4S94.9,33,94.2,34c-0.6,1-1.5,1.8-2.5,2.4c-1.1,0.6-2.3,0.9-3.6,0.9
		S85.5,36.9,84.4,36.3z M89.8,33.8c0.5-0.3,0.9-0.7,1.2-1.3s0.5-1.2,0.5-1.9s-0.2-1.4-0.5-1.9c-0.3-0.6-0.7-1-1.2-1.3
		s-1.1-0.5-1.7-0.5c-0.6,0-1.2,0.2-1.8,0.5s-0.9,0.7-1.2,1.3c-0.3,0.6-0.5,1.2-0.5,1.9s0.2,1.4,0.5,1.9s0.7,1,1.2,1.3
		s1.1,0.5,1.8,0.5C88.7,34.2,89.3,34.1,89.8,33.8z"/>
	<path class="st0" d="M98.5,36.8c-1-0.3-1.8-0.6-2.4-1l1.2-2.7c0.6,0.4,1.2,0.7,2,0.9c0.8,0.2,1.5,0.3,2.2,0.3c1.4,0,2.1-0.3,2.1-1
		c0-0.4-0.2-0.6-0.6-0.8c-0.4-0.2-1-0.4-1.9-0.6c-1-0.2-1.8-0.4-2.4-0.7s-1.2-0.6-1.7-1.1s-0.7-1.2-0.7-2.1c0-0.8,0.2-1.5,0.6-2.1
		c0.4-0.6,1.1-1.1,1.9-1.5c0.8-0.4,1.9-0.5,3.1-0.5c0.8,0,1.7,0.1,2.5,0.3c0.8,0.2,1.5,0.5,2.2,0.8l-1.1,2.7c-1.2-0.7-2.4-1-3.5-1
		c-0.7,0-1.2,0.1-1.6,0.3c-0.3,0.2-0.5,0.5-0.5,0.8c0,0.3,0.2,0.6,0.6,0.8c0.4,0.2,1,0.3,1.9,0.5c1,0.2,1.8,0.4,2.4,0.7
		c0.6,0.2,1.2,0.6,1.7,1.1c0.5,0.5,0.7,1.2,0.7,2.1c0,0.8-0.2,1.5-0.6,2.1c-0.4,0.6-1.1,1.1-1.9,1.5s-1.9,0.6-3.1,0.6
		C100.5,37.2,99.5,37.1,98.5,36.8z"/>
	<path class="st0" d="M118.5,28.2c-1.1-0.6-2.2-1-3.3-1.2v9.9h-3.6V27c-1.1,0.2-2.2,0.6-3.3,1.2l-1.2-2.6c0.9-0.5,1.9-0.9,2.9-1.2
		s2.2-0.4,3.3-0.4s2.3,0.1,3.3,0.4s2.1,0.7,2.9,1.2L118.5,28.2z"/>
	<path class="st0" d="M123.4,36.3c-1.1-0.6-1.9-1.4-2.5-2.4c-0.6-1-0.9-2.1-0.9-3.4s0.3-2.4,0.9-3.4s1.5-1.8,2.5-2.4
		s2.3-0.9,3.6-0.9c1.3,0,2.6,0.3,3.6,0.9s1.9,1.4,2.5,2.4c0.6,1,0.9,2.1,0.9,3.4s-0.3,2.4-0.9,3.4c-0.6,1-1.5,1.8-2.5,2.4
		c-1.1,0.6-2.3,0.9-3.6,0.9C125.7,37.2,124.5,36.9,123.4,36.3z M128.8,33.8c0.5-0.3,0.9-0.7,1.2-1.3s0.5-1.2,0.5-1.9
		s-0.2-1.4-0.5-1.9c-0.3-0.6-0.7-1-1.2-1.3s-1.1-0.5-1.7-0.5c-0.6,0-1.2,0.2-1.8,0.5s-0.9,0.7-1.2,1.3c-0.3,0.6-0.5,1.2-0.5,1.9
		s0.2,1.4,0.5,1.9s0.7,1,1.2,1.3s1.1,0.5,1.8,0.5C127.7,34.2,128.2,34.1,128.8,33.8z"/>
</g>
</svg>
