<?xml version="1.0" encoding="utf-8"?>
<!-- Generator: Adobe Illustrator 28.3.0, SVG Export Plug-In . SVG Version: 6.00 Build 0)  -->
<svg version="1.1" id="Capa_1" xmlns="http://www.w3.org/2000/svg" xmlns:xlink="http://www.w3.org/1999/xlink" x="0px" y="0px"
	 viewBox="0 0 154.6 46.7" style="enable-background:new 0 0 154.6 46.7;" xml:space="preserve">
<style type="text/css">
	.st0{fill:#FFFFFF;}
</style>
<g>
	<g>
		<g>
			<path class="st0" d="M10.2,39.7l-0.1,0.5h0.5l-0.1,0.4H10l-0.1,0.6H9.4l0.1-0.6H9.1l-0.1,0.6H8.5l0.1-0.6H8.1l0.1-0.4h0.5
				l0.1-0.5H8.3l0.1-0.4h0.5L9,38.7h0.5l-0.1,0.6h0.5l0.1-0.6h0.5l-0.1,0.6h0.5l-0.1,0.4H10.2z M9.7,39.7H9.3l-0.1,0.5h0.5L9.7,39.7
				z"/>
			<path class="st0" d="M14.5,41.3l0.1-0.6c0.3,0.2,0.6,0.3,1.1,0.3c0.5,0,0.7-0.1,0.7-0.4c0-0.8-1.9-0.2-1.9-1.5c0-0.7,0.4-1,1.3-1
				c0.8,0,1.2,0.3,1.2,0.8L16.2,39c0-0.3-0.2-0.4-0.6-0.4c-0.4,0-0.6,0.2-0.6,0.4c0,0.8,1.9,0.2,1.9,1.5c0,0.7-0.5,1-1.3,1
				C15,41.6,14.7,41.4,14.5,41.3z"/>
			<path class="st0" d="M21.3,38.7v0.8h1.4v0.5h-1.4v0.8h1.6v0.6h-2.2v-3.4h2.2v0.6H21.3z"/>
			<path class="st0" d="M29.5,39.7v1.8H29l0-0.4c-0.2,0.3-0.6,0.4-1,0.4c-1,0-1.6-0.7-1.6-1.7c0-1.2,0.6-1.7,1.7-1.7
				c0.9,0,1.3,0.4,1.4,1l-0.7,0.1c-0.1-0.3-0.3-0.5-0.7-0.5c-0.6,0-1,0.4-1,1.2c0,0.7,0.4,1.2,1,1.2c0.5,0,0.9-0.3,0.9-0.7v-0.1H28
				v-0.5H29.5z"/>
			<path class="st0" d="M33.1,40.2v-2.1h0.6v2c0,0.6,0.2,0.8,0.7,0.8c0.5,0,0.8-0.2,0.8-0.8v-2h0.6v2.1c0,0.9-0.5,1.4-1.4,1.4
				C33.6,41.6,33.1,41.1,33.1,40.2z"/>
			<path class="st0" d="M39.8,38.1h0.7v3.4h-0.7V38.1z"/>
			<path class="st0" d="M47.3,41.5l-0.1-2.4l-0.9,1.9h-0.5l-0.9-1.9l-0.1,2.4h-0.7l0.1-3.4h0.8l0.9,2.1l1-2.1h0.8l0.1,3.4H47.3z"/>
			<path class="st0" d="M51.5,39.8c0-1.1,0.6-1.7,1.6-1.7c1,0,1.6,0.7,1.6,1.7c0,1.1-0.6,1.7-1.6,1.7C52.1,41.6,51.5,40.9,51.5,39.8
				z M54.1,39.8c0-0.7-0.3-1.2-1-1.2c-0.6,0-1,0.4-1,1.2c0,0.7,0.3,1.2,1,1.2C53.8,41,54.1,40.5,54.1,39.8z"/>
			<path class="st0" d="M58.3,41.3l0.1-0.6c0.3,0.2,0.6,0.3,1.1,0.3c0.5,0,0.7-0.1,0.7-0.4c0-0.8-1.9-0.2-1.9-1.5c0-0.7,0.4-1,1.3-1
				c0.8,0,1.2,0.3,1.2,0.8L60.1,39c0-0.3-0.2-0.4-0.6-0.4c-0.4,0-0.6,0.2-0.6,0.4c0,0.8,1.9,0.2,1.9,1.5c0,0.7-0.5,1-1.3,1
				C58.9,41.6,58.5,41.4,58.3,41.3z"/>
			<path class="st0" d="M66.4,40.7H65l-0.3,0.8H64l1.3-3.4H66l1.3,3.4h-0.7L66.4,40.7z M66.2,40.2l-0.5-1.4l-0.5,1.4H66.2z"/>
			<path class="st0" d="M73.7,39.8c0,1.1-0.7,1.7-1.8,1.7h-1.1v-3.4h1C73,38.1,73.7,38.7,73.7,39.8z M73,39.8c0-0.7-0.4-1.1-1.2-1.1
				h-0.4v2.2h0.4C72.6,40.9,73,40.5,73,39.8z"/>
			<path class="st0" d="M78,38.7v0.8h1.4v0.5H78v0.8h1.6v0.6h-2.2v-3.4h2.2v0.6H78z"/>
			<path class="st0" d="M85.5,40.9v0.6h-2.3v-3.4h0.7v2.8H85.5z"/>
			<path class="st0" d="M90.9,40.7h-1.4l-0.3,0.8h-0.7l1.3-3.4h0.7l1.3,3.4h-0.7L90.9,40.7z M90.7,40.2l-0.5-1.4l-0.5,1.4H90.7z"/>
			<path class="st0" d="M98.3,38.1v3.4h-0.6L96,39.2v2.3h-0.6v-3.4H96l1.6,2.3v-2.3H98.3z"/>
			<path class="st0" d="M104.4,38.7h-1v2.8h-0.7v-2.8h-1v-0.6h2.6V38.7z"/>
			<path class="st0" d="M108.4,38.7v0.8h1.4v0.5h-1.4v0.8h1.6v0.6h-2.2v-3.4h2.2v0.6H108.4z"/>
		</g>
		<g>
			<path class="st0" d="M15.5,5.6v1.1H9.2v4.5H14v1.1H9.2v4.5h6.3v1.1H8.1V5.6H15.5z"/>
			<path class="st0" d="M17.7,5.6h0.8l7.7,10.1V5.6h1.1v12.3h-0.8L18.9,7.8v10.1h-1.1V5.6z"/>
			<path class="st0" d="M40,15.5l0.8,0.7c0,0-0.1,0.1-0.1,0.1c-1.3,1.3-2.8,1.9-4.6,1.9c-1.8,0-3.3-0.6-4.6-1.9
				c-1.3-1.3-1.9-2.8-1.9-4.6c0-1.8,0.6-3.3,1.9-4.6c1.3-1.3,2.8-1.9,4.6-1.9c1.8,0,3.3,0.6,4.6,1.9c0,0,0.1,0.1,0.1,0.1L40.1,8
				C40,8,40,7.9,40,7.9c-1.1-1.1-2.3-1.6-3.8-1.6c-1.5,0-2.8,0.5-3.8,1.6c-1.1,1.1-1.6,2.3-1.6,3.8c0,1.5,0.5,2.8,1.6,3.8
				c1.1,1.1,2.3,1.6,3.8,1.6C37.6,17.1,38.9,16.6,40,15.5C40,15.5,40,15.5,40,15.5z"/>
			<path class="st0" d="M42.6,13.4V5.6h1.1v7.8c0,1,0.4,1.9,1.1,2.6c0.7,0.7,1.6,1.1,2.6,1.1c1,0,1.9-0.4,2.6-1.1
				c0.7-0.7,1.1-1.6,1.1-2.6V5.6h1.1v7.8c0,1.3-0.5,2.5-1.4,3.4c-0.9,0.9-2.1,1.4-3.4,1.4c-1.3,0-2.5-0.5-3.4-1.4
				C43.1,15.8,42.6,14.7,42.6,13.4z"/>
			<path class="st0" d="M62.3,5.6v1.1H56v4.5h4.8v1.1H56v4.5h6.3v1.1h-7.4V5.6H62.3z"/>
			<path class="st0" d="M64.6,5.6h0.8l7.7,10.1V5.6h1.1v12.3h-0.8L65.7,7.8v10.1h-1.1V5.6z"/>
			<path class="st0" d="M79.3,6.7h-3.5V5.6h8.2v1.1h-3.5v11.2h-1.1V6.7z"/>
			<path class="st0" d="M91.1,14.6c-0.4,0.1-0.9,0.2-1.4,0.2h-3.2v3h-1.1V5.6h4.3c1.3,0,2.4,0.5,3.3,1.4c0.9,0.9,1.4,2,1.4,3.3
				c0,1.3-0.5,2.4-1.4,3.3c-0.3,0.3-0.6,0.5-0.9,0.7l1.9,3.6h-1.2L91.1,14.6z M89.7,6.7h-3.2v7.1h3.2c1,0,1.8-0.3,2.5-1
				c0.7-0.7,1-1.5,1-2.5c0-1-0.3-1.8-1-2.5C91.5,7,90.6,6.7,89.7,6.7z"/>
			<path class="st0" d="M109.2,11.7c0,1.8-0.6,3.3-1.9,4.6c-1.3,1.3-2.8,1.9-4.6,1.9c-1.8,0-3.3-0.6-4.6-1.9
				c-1.3-1.3-1.9-2.8-1.9-4.6c0-1.8,0.6-3.3,1.9-4.6c1.3-1.3,2.8-1.9,4.6-1.9c1.8,0,3.3,0.6,4.6,1.9C108.5,8.4,109.2,9.9,109.2,11.7
				z M102.7,6.3c-1.5,0-2.8,0.5-3.8,1.6c-1.1,1.1-1.6,2.3-1.6,3.8c0,1.5,0.5,2.8,1.6,3.8c1.1,1.1,2.3,1.6,3.8,1.6
				c1.5,0,2.8-0.5,3.8-1.6c1.1-1.1,1.6-2.3,1.6-3.8c0-1.5-0.5-2.8-1.6-3.8C105.4,6.8,104.2,6.3,102.7,6.3z"/>
		</g>
		<g>
			<path class="st0" d="M10.7,31.5v2.6H8.1V21.8h4.5c1.3,0,2.5,0.5,3.4,1.4c0.9,0.9,1.4,2.1,1.4,3.4c0,1.3-0.5,2.5-1.4,3.4
				c-0.2,0.2-0.4,0.4-0.6,0.5l2,3.5h-3l-1.5-2.6c-0.1,0-0.2,0-0.3,0H10.7z M10.7,24.4v4.5h1.9c0.6,0,1.1-0.2,1.6-0.7
				c0.4-0.4,0.7-1,0.7-1.6c0-0.6-0.2-1.1-0.7-1.6c-0.4-0.4-1-0.7-1.6-0.7H10.7z"/>
			<path class="st0" d="M28.2,21.8v2.6h-5.6v2.2H27v2.6h-4.5v2.2h5.6v2.6H20V21.8H28.2z"/>
			<path class="st0" d="M30.4,34.1V21.8h5c1.7,0,3.1,0.6,4.3,1.8c1.2,1.2,1.8,2.6,1.8,4.3c0,1.7-0.6,3.1-1.8,4.3
				c-1.2,1.2-2.6,1.8-4.3,1.8H30.4z M33,24.4v7.1h2.4c1,0,1.8-0.3,2.5-1c0.7-0.7,1-1.5,1-2.5c0-1-0.3-1.8-1-2.5
				c-0.7-0.7-1.5-1-2.5-1H33z"/>
			<path class="st0" d="M58.3,32.6H52l-0.7,1.5h-2.9l5.8-12.3h1.9l5.8,12.3H59L58.3,32.6z M57,30l-1.9-4.1L53.2,30H57z"/>
			<path class="st0" d="M73.1,32.5c-1.3,1.3-2.8,1.9-4.6,1.9c-1.8,0-3.3-0.6-4.6-1.9c-1.3-1.3-1.9-2.8-1.9-4.6
				c0-1.8,0.6-3.3,1.9-4.6c1.3-1.3,2.8-1.9,4.6-1.9c1.8,0,3.3,0.6,4.6,1.9l-1.8,1.8c-0.8-0.8-1.7-1.1-2.8-1.1c-1.1,0-2,0.4-2.8,1.1
				c-0.8,0.8-1.1,1.7-1.1,2.8c0,1.1,0.4,2,1.1,2.8c0.8,0.8,1.7,1.1,2.8,1.1c1.1,0,2-0.4,2.8-1.1L73.1,32.5z"/>
			<path class="st0" d="M83.2,21.8v2.6h-5.6v2.2H82v2.6h-4.5v2.2h5.6v2.6H75V21.8H83.2z"/>
			<path class="st0" d="M88,31.5v2.6h-2.6V21.8h4.5c1.3,0,2.5,0.5,3.4,1.4c0.9,0.9,1.4,2.1,1.4,3.4c0,1.3-0.5,2.5-1.4,3.4
				c-0.2,0.2-0.4,0.4-0.6,0.5l2,3.5h-3l-1.5-2.6c-0.1,0-0.2,0-0.3,0H88z M88,24.4v4.5h1.9c0.6,0,1.1-0.2,1.6-0.7
				c0.4-0.4,0.7-1,0.7-1.6c0-0.6-0.2-1.1-0.7-1.6c-0.4-0.4-1-0.7-1.6-0.7H88z"/>
			<path class="st0" d="M107.6,23.3c1.3,1.3,1.9,2.8,1.9,4.6c0,1.8-0.6,3.3-1.9,4.6c-1.3,1.3-2.8,1.9-4.6,1.9
				c-1.8,0-3.3-0.6-4.6-1.9c-1.3-1.3-1.9-2.8-1.9-4.6c0-1.8,0.6-3.3,1.9-4.6c1.3-1.3,2.8-1.9,4.6-1.9
				C104.8,21.4,106.4,22.1,107.6,23.3z M103.1,24c-1.1,0-2,0.4-2.8,1.1c-0.8,0.8-1.1,1.7-1.1,2.8c0,1.1,0.4,2,1.1,2.8
				c0.8,0.8,1.7,1.1,2.8,1.1c1.1,0,2-0.4,2.8-1.1c0.8-0.8,1.1-1.7,1.1-2.8c0-1.1-0.4-2-1.1-2.8C105,24.4,104.1,24,103.1,24z"/>
		</g>
	</g>
	<g>
		<path class="st0" d="M134.3,12.4c0,0.1,0,0.2,0,0.3C134.3,12.7,134.3,12.5,134.3,12.4L134.3,12.4z"/>
		<path class="st0" d="M135,9.7c-0.1,0.1-0.2,0.2-0.3,0.4C134.8,10,134.9,9.9,135,9.7z"/>
		<path class="st0" d="M134.7,10.1c-0.1,0.1-0.2,0.3-0.3,0.4C134.5,10.4,134.6,10.3,134.7,10.1z"/>
		<path class="st0" d="M134.5,11.6c0-0.1,0.1-0.2,0.1-0.3C134.6,11.4,134.5,11.5,134.5,11.6z"/>
		<path class="st0" d="M134.2,6.9c0,0,0.1,0,0.1-0.1C134.3,6.8,134.3,6.8,134.2,6.9z"/>
		<polygon class="st0" points="133.3,7.6 133.3,7.6 133.3,7.6 		"/>
		<path class="st0" d="M134.8,6.5c0.2-0.1,0.4-0.2,0.6-0.3C135.1,6.3,134.9,6.4,134.8,6.5z"/>
		<path class="st0" d="M134.5,11.6c-0.1,0.3-0.1,0.6-0.2,0.8c0-0.2,0.1-0.4,0.1-0.6C134.4,11.8,134.5,11.7,134.5,11.6z"/>
		<path class="st0" d="M133.3,7.6c0.3-0.3,0.6-0.5,0.9-0.8C133.9,7.1,133.6,7.3,133.3,7.6z"/>
		<path class="st0" d="M134.7,10.1C134.7,10.1,134.7,10.1,134.7,10.1C134.7,10.1,134.7,10.1,134.7,10.1z"/>
		<path class="st0" d="M134.3,6.8c0.1-0.1,0.3-0.2,0.4-0.3C134.6,6.6,134.5,6.7,134.3,6.8z"/>
		<path class="st0" d="M145.8,32.4c-0.4-0.8-0.8-1.5-1.4-2c-0.6-0.6-1.3-1-2.1-1.3c-0.8-0.3-1.6-0.4-2.4-0.4h-3.7l0.4-3.5h5.3
			c2,0,3.7-1.6,3.7-3.7v-0.5h0v-4.5v-1.5v-2.3c0-1.1-0.2-2-0.6-3c-0.4-0.9-0.9-1.7-1.6-2.4c-0.7-0.7-1.5-1.2-2.4-1.6
			c-0.9-0.4-1.9-0.6-2.9-0.6c-1,0-2,0.2-2.9,0.6c-0.8,0.4-1.5,0.8-2.2,1.4c-0.1-0.1-0.2-0.2-0.3-0.3c-0.5-0.5-1.2-1-1.9-1.3
			c-0.7-0.3-1.5-0.5-2.3-0.5h-7.1v0.3c0,2,1.6,3.7,3.7,3.7h3.4c0.3,0,0.5,0.1,0.8,0.2c0.2,0.1,0.4,0.2,0.6,0.4
			c0.2,0.2,0.3,0.4,0.4,0.6c0.1,0.2,0.2,0.5,0.2,0.8c0,0.3-0.1,0.5-0.2,0.8c-0.1,0.2-0.2,0.5-0.4,0.6c-0.2,0.2-0.4,0.3-0.6,0.4
			c-0.2,0.1-0.5,0.2-0.8,0.2h-2c-0.8,0-1.6,0.2-2.3,0.5c-0.7,0.3-1.3,0.7-1.9,1.3c-0.5,0.5-1,1.2-1.3,1.9c-0.3,0.7-0.5,1.5-0.5,2.3
			v2.3c0,0.1,0,0.3,0,0.4c0.1,1.9,1.7,3.4,3.6,3.4h3.7c0.3,0,0.6,0.1,0.8,0.2c0.2,0.1,0.5,0.3,0.7,0.4c0.2,0.2,0.3,0.4,0.4,0.7
			c0.1,0.2,0.2,0.5,0.2,0.8s-0.1,0.6-0.2,0.8c-0.1,0.3-0.3,0.5-0.4,0.7c-0.2,0.2-0.4,0.3-0.7,0.4c-0.2,0.1-0.5,0.2-0.8,0.2h-2.1
			c-0.8,0-1.6,0.2-2.4,0.5c-0.7,0.3-1.4,0.8-2,1.3c-0.6,0.6-1,1.2-1.3,2c-0.3,0.7-0.5,1.5-0.5,2.4v6.1h9.8h4.8h5.6
			c0.8,0,1.7-0.1,2.4-0.4c0.8-0.3,1.5-0.7,2.1-1.3c0.6-0.6,1.1-1.2,1.4-2c0.4-0.8,0.5-1.7,0.5-2.7C146.3,34.1,146.1,33.2,145.8,32.4
			z M141.8,15.1L141.8,15.1l0,6h-7.5v-4.5h0v-3.8c0-0.1,0-0.2,0-0.3l0,0c0-0.3,0.1-0.6,0.2-0.8c0-0.1,0.1-0.2,0.1-0.3
			c0.2-0.5,0.5-0.9,0.8-1.2c0.3-0.3,0.7-0.6,1.2-0.8C137,9.1,137.5,9,138,9c0.5,0,1,0.1,1.4,0.3c0.5,0.2,0.9,0.5,1.2,0.8
			c0.3,0.3,0.6,0.7,0.8,1.2c0.2,0.5,0.3,0.9,0.3,1.5V15.1z M133.3,7.6c0.3-0.3,0.6-0.5,0.9-0.8c0,0,0.1,0,0.1-0.1
			c0.1-0.1,0.3-0.2,0.4-0.3c0.2-0.1,0.4-0.2,0.6-0.3c0.8-0.4,1.7-0.6,2.7-0.6c1,0,1.9,0.2,2.7,0.6c0.8,0.4,1.6,0.9,2.2,1.5
			c0.6,0.6,1.1,1.4,1.5,2.3c0.4,0.9,0.5,1.8,0.5,2.8v2.3v1.5v4.5h-2.7v-5.5h0v-0.5v-2.3c0-0.6-0.1-1.2-0.3-1.7
			c-0.2-0.5-0.5-1-0.9-1.4c-0.4-0.4-0.8-0.7-1.4-0.9c-0.5-0.2-1.1-0.3-1.7-0.3c-0.6,0-1.1,0.1-1.7,0.3c-0.5,0.2-1,0.5-1.3,0.9
			c-0.1,0.1-0.2,0.2-0.3,0.4c0,0,0,0,0,0c-0.1,0.1-0.2,0.3-0.3,0.4c0,0,0,0,0,0c-0.1-0.6-0.2-1.2-0.4-1.7
			C133.8,8.4,133.6,8,133.3,7.6C133.3,7.6,133.3,7.6,133.3,7.6z M131.1,16.6L131.1,16.6c0.6-0.4,1.1-0.8,1.6-1.2
			c0.4-0.4,0.8-0.9,1.1-1.5v2.2h0v0.5v4.5h-2.7V16.6z M124.5,19.1c0-0.3,0.1-0.5,0.2-0.8c0.1-0.2,0.2-0.4,0.4-0.6
			c0.2-0.2,0.4-0.3,0.6-0.4c0.2-0.1,0.5-0.2,0.8-0.2h2c0.7,0,1.4-0.1,2.1-0.4v4.3h-6V19.1z M129.4,41h-9.2v-5.6
			c0-0.8,0.1-1.5,0.4-2.2c0.3-0.7,0.7-1.3,1.2-1.8c0.5-0.5,1.1-0.9,1.8-1.2c0.7-0.3,1.4-0.4,2.2-0.4h2.1c0.4,0,0.7-0.1,1-0.2
			c0.3-0.1,0.6-0.3,0.8-0.5c0.2-0.2,0.4-0.5,0.5-0.8c0.1-0.3,0.2-0.7,0.2-1c0-0.4-0.1-0.7-0.2-1c-0.1-0.3-0.3-0.6-0.5-0.8
			c-0.1-0.1-0.3-0.3-0.5-0.4c-0.1-0.1-0.2-0.1-0.3-0.2c-0.3-0.1-0.6-0.2-1-0.2h-3.7c-1.7,0-3.1-1.4-3.1-3.1h6.8
			c0.8,0,1.5,0.1,2.2,0.4c0.4,0.2,0.8,0.4,1.1,0.7c0.2,0.2,0.5,0.4,0.7,0.6c0.5,0.5,0.9,1.1,1.2,1.8c0.2,0.5,0.4,1.1,0.4,1.6
			c0,0.2,0,0.4,0,0.5c0,0.8-0.1,1.5-0.4,2.2c-0.2,0.5-0.4,0.9-0.7,1.3c-0.1,0.2-0.3,0.4-0.5,0.5c-0.5,0.5-1.1,0.9-1.8,1.2
			c-0.7,0.3-1.4,0.4-2.2,0.4h-2.1c-0.4,0-0.7,0.1-1,0.2c-0.3,0.1-0.6,0.3-0.8,0.5c-0.2,0.2-0.4,0.5-0.5,0.8c-0.1,0.3-0.2,0.6-0.2,1
			v2V38h0.5h5.7h1.2c1.7,0,3.1,1.4,3.1,3.1H129.4z M142,36.2c-0.1,0.3-0.3,0.5-0.5,0.7c-0.2,0.2-0.5,0.3-0.8,0.4
			c-0.3,0.1-0.6,0.1-0.8,0.1h-9.3h-1.2h-5.7v-2c0-0.3,0.1-0.6,0.2-0.8c0.1-0.2,0.3-0.5,0.4-0.7c0.2-0.2,0.4-0.3,0.7-0.4
			c0.2-0.1,0.5-0.2,0.8-0.2h2.1c0.8,0,1.6-0.2,2.4-0.5c0.7-0.3,1.4-0.8,2-1.3c0.1-0.1,0.3-0.3,0.4-0.4c0.6,1,1.8,1.6,3,1.6h4.2
			c0.3,0,0.6,0.1,0.8,0.2c0.3,0.1,0.5,0.2,0.8,0.4c0.2,0.2,0.4,0.4,0.5,0.7c0.1,0.3,0.2,0.6,0.2,1C142.2,35.5,142.2,35.9,142,36.2z"
			/>
	</g>
	<g>
		<path class="st0" d="M114.1,5.2L114.1,5.2c0.8,0,1.5,0.7,1.5,1.5v34.9l0,0c-0.8,0-1.5-0.7-1.5-1.5V5.2z"/>
	</g>
</g>
</svg>
